<svg width="70" height="129" viewBox="0 0 70 129" fill="none" xmlns="http://www.w3.org/2000/svg">
                <path d="M62.2063 28.3362H48.8393V19.9716C48.8393 17.8844 47.1545 16.1923 45.0763 16.1923H44.8087V3.7793C44.8087 1.69212 43.1238 0 41.0456 0H28.9541C26.8759 0 25.1911 1.69212 25.1911 3.7793V16.1923H24.9234C22.8452 16.1923 21.1604 17.8844 21.1604 19.9716V28.3362H7.79344C3.49609 28.3362 0 31.8477 0 36.1637V121.173C0 125.489 3.49609 129 7.79344 129H62.2066C66.5039 129 70 125.489 70 121.173V36.1637C69.9997 31.8474 66.5037 28.3362 62.2063 28.3362ZM32.7169 7.55861H37.2824V16.1923H32.7169V7.55861ZM41.3131 23.7509V28.3362H28.6859V23.7509H41.3131ZM62.4737 121.173C62.4737 121.311 62.3438 121.442 62.2063 121.442H7.79319C7.65572 121.442 7.52577 121.311 7.52577 121.173V36.1637C7.52577 36.0253 7.65572 35.8948 7.79319 35.8948H62.2063C62.3438 35.8948 62.4737 36.0256 62.4737 36.1637V121.173Z" fill="#302AAF"/>
                <path d="M54.1449 40.4804H15.8543C13.7761 40.4804 12.0913 42.1725 12.0913 44.2597V113.077C12.0913 115.164 13.7761 116.856 15.8543 116.856H54.1449C56.2231 116.856 57.9079 115.164 57.9079 113.077V44.2597C57.9079 42.1725 56.2231 40.4804 54.1449 40.4804ZM50.3819 109.297H19.6173V48.039H50.3819V109.297Z" fill="#302AAF"/>
            </svg>
