<svg width="105" height="105" viewBox="0 0 105 105" fill="none" xmlns="http://www.w3.org/2000/svg">
                <path d="M32.7131 0.286674C27.5654 1.47617 23.1561 4.75755 20.6335 9.28994C19.0544 12.1406 18.4801 14.4376 18.3161 18.8059L18.193 22.1488H10.0716C2.46295 22.1488 1.90922 22.1693 1.35549 22.5385C1.04786 22.7436 0.596671 23.1947 0.391585 23.5024C0.0224312 24.0766 0.00192268 25.1431 0.00192268 58.0183C0.00192268 96.1642 -0.121129 93.0469 1.60159 96.5949C2.40142 98.2766 2.8116 98.8098 4.4933 100.492C6.09297 102.091 6.79026 102.624 8.20535 103.322C9.16925 103.793 10.6869 104.368 11.5688 104.593C13.1684 105.003 13.9683 105.003 58.1232 105.003C101.786 105.003 103.078 104.983 103.652 104.614C103.96 104.409 104.411 103.957 104.616 103.65C105.293 102.604 105.436 104.183 101.929 74.3431C100.925 65.7705 99.8171 56.3161 99.4685 53.3423C98.5661 45.5286 99.0173 45.9387 91.7162 45.9387H86.6096L86.4865 42.9035C86.425 40.9962 86.2404 39.4785 86.0354 38.7607C84.4562 33.5516 79.8008 29.9421 74.6736 29.9421H73.2175V27.0093C73.2175 23.81 73.0739 23.3383 71.8639 22.5385C71.3102 22.1693 70.7565 22.1488 63.1273 22.1488H54.9649V20.0364C54.9649 17.0217 54.6367 14.6222 53.9394 12.4483C52.1962 6.99297 47.8894 2.70669 42.2906 0.819901C40.4448 0.184135 40.0757 0.122604 37.1224 0.0815887C34.9485 0.0200653 33.5539 0.102097 32.7131 0.286674ZM40.4858 6.95196C42.2906 7.58772 43.4391 8.34654 45.0387 9.9257C47.5203 12.4072 48.3611 14.6632 48.5457 19.2161L48.6687 22.1488H36.6097H24.5507L24.6737 19.2161C24.7353 17.5959 24.9198 15.8117 25.1044 15.1759C26.4375 10.4179 30.6007 6.82891 35.3792 6.37772C37.0199 6.21365 39.0297 6.43925 40.4858 6.95196ZM18.2956 31.0085C18.3366 33.3055 18.4186 33.8592 18.7673 34.4539C19.8952 36.3612 22.7459 36.4843 24.0995 34.7001C24.4481 34.2078 24.5097 33.7567 24.5712 31.2136L24.6327 28.3014H36.6097H48.5867L48.6482 31.2136C48.7098 33.7567 48.7713 34.2078 49.1199 34.7001C50.0633 35.9511 51.9911 36.3612 53.3242 35.5614C54.5957 34.8231 54.8623 34.0848 54.9239 31.0085L55.0059 28.3014H61.0354H67.0649V58.6951C67.0649 77.0297 66.9829 89.7245 66.8598 90.6269C66.3061 94.8517 63.0658 98.092 58.841 98.6458C56.8106 98.9124 16.4088 98.9124 14.3784 98.6458C10.1537 98.092 6.91331 94.8517 6.35958 90.6269C6.23653 89.7245 6.15449 77.0297 6.15449 58.6951V28.3014H12.184H18.2135L18.2956 31.0085ZM76.9296 36.956C79.247 38.166 80.1904 40.1758 80.1904 43.9289V45.9387H76.704H73.2175V41.1192V36.2997H74.4275C75.3914 36.2997 75.9041 36.4433 76.9296 36.956ZM80.2314 53.732C80.293 55.3112 80.334 55.3932 81.0518 56.1315C81.708 56.7673 81.9541 56.8903 82.9796 56.9724C85.174 57.1569 86.3225 56.029 86.507 53.5064L86.6096 52.0913H89.7474H92.8852L93.0083 52.9527C93.0698 53.4449 94.2593 63.6581 95.6744 75.6762C97.069 87.6942 98.2585 97.8254 98.32 98.1946L98.4225 98.8508H84.3537H70.3053L70.7565 98.1741C71.5768 96.9641 72.5612 94.6671 72.8894 93.17C73.1765 91.8779 73.2175 89.3554 73.2175 71.9026V52.0913H76.6834H80.1494L80.2314 53.732Z" fill="#302AAF"/>
            </svg>
