<svg width="90" height="96" viewBox="0 0 90 96" fill="none" xmlns="http://www.w3.org/2000/svg">
                <path d="M27.5409 0.368942C23.0409 1.59086 19.363 4.14188 16.8966 7.78619C15.2091 10.2943 13.8462 14.1745 13.8462 16.4682V17.1113H9.6274C5.90625 17.1113 5.30048 17.1542 4.21875 17.5615C2.61779 18.1618 1.0601 19.7052 0.454327 21.2916C0.0216346 22.4492 0 22.8565 0 34.2611C0 45.6656 0.0216346 46.0729 0.454327 47.2305C1.29808 49.4814 3.95913 51.4108 6.16587 51.4108H6.92308V71.0257C6.92308 90.362 6.92308 90.6407 7.3774 91.8198C7.98317 93.4061 9.54087 94.9496 11.1418 95.5498C12.3534 96 12.4183 96 45 96C77.5817 96 77.6466 96 78.8582 95.5498C80.4591 94.9496 82.0168 93.4061 82.6226 91.8198C83.0769 90.6407 83.0769 90.362 83.0769 71.0257V51.4108H83.8341C86.0409 51.4108 88.7019 49.4814 89.5457 47.2305C89.9784 46.0729 90 45.6656 90 34.2611C90 22.8565 89.9784 22.4492 89.5457 21.2916C88.9399 19.7052 87.3822 18.1618 85.7812 17.5615C84.6995 17.1542 84.0938 17.1113 80.3726 17.1113H76.1538V16.4682C76.1538 16.1038 76.0024 15.0534 75.8077 14.153C74.4014 7.31458 68.9928 1.91241 61.9615 0.261757C60.0144 -0.188423 56.0769 -0.0383606 54.1731 0.561874C52.5288 1.07637 50.4087 2.12679 49.1106 3.07002C48.0721 3.82032 45.6707 6.22128 45.2596 6.9287L45 7.35744L44.7404 6.9287C44.3293 6.22128 41.9279 3.82032 40.8894 3.07002C39.5913 2.12679 37.4712 1.07637 35.8269 0.561874C33.8149 -0.0812378 29.5745 -0.166985 27.5409 0.368942ZM33.3389 7.33601C37.4279 8.55793 40.4784 12.0522 41.2139 16.2967L41.3438 17.1113H31.1538H20.9639L21.0938 16.2967C22.1322 10.23 28.1899 5.79253 33.3389 7.33601ZM61.0312 7.33601C65.1202 8.55793 68.1707 12.0522 68.9062 16.2967L69.0361 17.1113H58.8462H48.6562L48.7861 16.2967C49.8245 10.23 55.8822 5.79253 61.0312 7.33601ZM24.2308 34.2611V44.5509H15.5769H6.92308V34.2611V23.9712H15.5769H24.2308V34.2611ZM58.8462 34.2611V44.5509H45H31.1538V34.2611V23.9712H45H58.8462V34.2611ZM83.0769 34.2611V44.5509H74.4231H65.7692V34.2611V23.9712H74.4231H83.0769V34.2611ZM31.1538 70.2754V89.1401H22.5H13.8462V70.2754V51.4108H22.5H31.1538V70.2754ZM51.9231 70.2754V89.1401H45H38.0769V70.2754V51.4108H45H51.9231V70.2754ZM76.1538 70.2754V89.1401H67.5H58.8462V70.2754V51.4108H67.5H76.1538V70.2754Z" fill="#302AAF"/>
            </svg>
