<svg width="37" height="91" viewBox="0 0 37 91" fill="none" xmlns="http://www.w3.org/2000/svg">
                <path d="M7.07232 0.308937C6.78277 0.463364 6.45461 0.752922 6.33879 0.965256C6.22297 1.1969 6.14575 5.6174 6.14575 13.7056V26.0598L5.25779 29.5924L4.38914 33.1249L3.46257 33.5496C2.30436 34.0708 1.08824 35.2676 0.50913 36.4451L0.0651493 37.3524L0.00723882 63.2191C-0.0120647 77.4458 0.00723882 89.2788 0.0651493 89.5297C0.12306 89.7614 0.451219 90.1282 0.798683 90.3405C1.39709 90.7073 1.86038 90.7266 18.5 90.7266C35.1396 90.7266 35.6029 90.7073 36.2013 90.3405C36.5488 90.1282 36.8769 89.7614 36.9348 89.5297C36.9928 89.2788 37.0121 77.4458 36.9928 63.2191L36.9348 37.3524L36.4909 36.4451C35.9118 35.2676 34.6956 34.0708 33.5374 33.5496L32.6109 33.1249L31.7422 29.5924L30.8542 26.0598V13.7056C30.8542 5.5788 30.777 1.1969 30.6612 0.945953C30.14 8.39233e-05 30.0821 8.39233e-05 18.4614 8.39233e-05C9.25362 0.0193863 7.5163 0.057991 7.07232 0.308937ZM26.6075 14.4777V24.7086H18.5H10.3925V14.4777V4.24686H18.5H26.6075V14.4777ZM27.6113 30.9822L28.0938 33.0091H18.5H8.90616L9.38874 30.9822L9.89063 28.9553H18.5H27.1094L27.6113 30.9822ZM31.7229 37.4875C32.8425 37.9894 32.7846 36.7154 32.7846 62.64V86.4798H18.5H4.2154V62.5821C4.23471 36.947 4.1768 38.0859 5.19988 37.5261C5.8369 37.1786 30.9508 37.14 31.7229 37.4875Z" fill="#302AAF"/>
                <path d="M16.0285 8.70602C13.7893 9.57468 12.3223 11.8525 12.3223 14.4778C12.3223 18.0296 14.658 20.4619 18.2098 20.6163C20.1788 20.7128 21.5879 20.2109 22.8041 19.0527C24.0395 17.8366 24.5607 16.6205 24.6379 14.7673C24.7344 12.7212 24.2325 11.3506 22.9392 10.038C21.2212 8.33925 18.4029 7.79876 16.0285 8.70602ZM19.4453 12.8177C20.7386 13.4933 20.7 15.5781 19.368 16.1765C18.3836 16.6205 17.3026 16.3116 16.8393 15.4236C15.932 13.667 17.6886 11.9104 19.4453 12.8177Z" fill="#302AAF"/>
                <path d="M8.73168 45.9619L8.17188 46.5411V63.8949V81.2488L8.73168 81.8279L9.31078 82.4263H18.4993H27.6877L28.2668 81.8279L28.8266 81.2488V63.8949V46.5411L28.2668 45.9619L27.6877 45.3635H18.4993H9.31078L8.73168 45.9619ZM24.6764 63.8949V78.1795H18.4993H12.3221V63.8949V49.6103H18.4993H24.6764V63.8949Z" fill="#302AAF"/>
            </svg>
